<?xml version="1.0" encoding="UTF-8"?>
<svg id="PGLogo_Image" data-name="PGLogo Image" xmlns="http://www.w3.org/2000/svg" width="117" height="120.66" viewBox="0 0 117 120.66">
  <path d="M60.49,62.89c-.11,0-.22.02-.33.07.53-.6,1.1-1.15,1.63-1.75-.44-.26-.89-.52-1.3-.81.72-.06,1.04-.68.93-1.36-.14-.83-1.39-1.11-2.06-1.4.32-.39.74-.66,1.41-.66.11,0,.22,0,.34.02.06-.52.04-.96-.05-1.35-.04-.03-.11-.03-.2-.03-.12,0-.26,0-.4,0-.22,0-.43-.03-.49-.16.16-.43.53-.62,1.02-.68-.45-.48-.88-1.16-1.25-1.66-.13-.18-.39-.34-.34-.57.17.06.35.09.54.09.31,0,.62-.07.87-.13.07-.75-.03-1.51-.12-2.27-.09-.76-.06-1.56-.18-2.21-.22-1.13-.92-1.89-1.45-2.53.2.02.39.04.57.04.4,0,.75-.06,1.03-.19-.07-.46-.38-.93-.53-1.5-.15-.58-.24-1.24-.2-1.97-.5.02-.9.16-1.36.23-.19-.45-.22-1.04-.41-1.49-1.94,3.29-4.14,7.1-6.15,10.49-.71,1.2-1.6,2.36-2.03,3.56-.1.28-.13.69-.12,1.1.03,1.37.34,2.87.62,4.2.86,3.97,2.36,7.7,4.06,10.75,1.47-1.58,3.63-3.23,5.58-4.65.33-.24,1.78-1.19,1.86-1.55.11-.48-.65-1.64-1.48-1.64h0Z" fill="#fff"/>
  <path d="M82.65,95.67c-.02-.32-.18-.43-.38-.43-.34,0-.8.33-.91.55.34,2.15.74,4.25,1.25,6.25.5-1.67,1.95-3.37,1.4-5.37.08.03.17.05.25.05.74,0,1.23-1.22.64-1.77,1.1-.55,1.53-2.18,1.78-3.45-1.39,1.34-2.76,2.7-4.03,4.18h0Z" fill="#fff"/>
  <path d="M95.06,5H22.06C11.92,5,3.67,13.25,3.67,23.39v73c0,5.28,2.25,10.04,5.84,13.4.12.12.25.23.38.34.13.12.25.24.39.35.92.77,1.9,1.45,2.96,2.03.15.08.31.15.47.23s.32.15.48.23c2.39,1.14,5.06,1.8,7.89,1.8h53.33c.79,1.32,1.96,2.5,3.81,2.8.36.06.74.09,1.13.09,2.21,0,4.94-1.01,5.89-2.88h8.85c10.14,0,18.39-8.25,18.39-18.39V23.39c0-10.14-8.25-18.39-18.39-18.39h-.03ZM45.87,5.98c.21.2.41.39.62.59.71.67,1.45,1.34,2.17,2.01h-10.72c-1.09-.86-2.16-1.74-3.24-2.6h11.17ZM4.65,96.39V23.39c0-9.6,7.81-17.4,17.4-17.4h6.65c1.09.87,2.17,1.75,3.28,2.6h-7.15c-9.64,0-17.45,7.81-17.45,17.45v67.43c0,4.77,1.92,9.08,5.01,12.23-.02.01-.04.03-.06.04-.04.03-.08.06-.12.09-.37.23-.66.58-.82,1-.15.14-.26.27-.33.37l-.14.18c-.17.22-.35.45-.51.7-.14.22-.26.43-.37.64l-.08.16c-3.27-3.17-5.32-7.59-5.32-12.5h.01ZM22.06,113.79c-2.51,0-4.89-.54-7.04-1.5.11-.11.21-.24.28-.41.03-.03.07-.07.1-.11.06-.06.14-.15.17-.17.36-.19.64-.49.82-.86.11-.24.28-.48.51-.76.07-.08.13-.17.19-.26.04-.06.07-.12.1-.17l.06-.09c.04-.06.09-.13.13-.23,2.26,1.07,4.79,1.69,7.46,1.69h4.35s-.02.07-.03.09c-.1.18-.12.35-.13.43l-.02.08c0,.06-.02.12-.03.17-.09.1-.15.2-.2.32-.02.04-.06.09-.1.13-.08.11-.19.25-.28.42-.18.35-.29.72-.32,1.09v.12h-6.03v.02ZM29.06,113.79v-.04c.02-.25.1-.49.21-.72.12-.23.32-.41.42-.65,0-.02.03-.04.06-.06.12-.08.17-.2.18-.35,0-.12.04-.23.06-.35,0-.05,0-.11.04-.16.09-.18.14-.36.18-.55.04-.17.07-.34.11-.51.07-.24.19-.47.24-.71.19-.24.21-.56.37-.81.03-.05.03-.12.04-.18,0-.08.02-.16.02-.24,0-.07.02-.14.07-.2.09-.09.12-.2.13-.32,0-.07,0-.15.07-.2.1-.08.11-.18.12-.29,0-.16.02-.32.12-.46.07-.09.05-.21-.03-.3-.04-.05-.08-.1-.12-.15-.07-.08-.1-.17-.09-.27,0-.04,0-.09,0-.13.02-.12-.03-.21-.09-.3-.1-.14-.19-.28-.28-.43-.09-.14-.18-.29-.27-.44-.02-.03-.04-.06-.05-.1-.04-.23-.19-.39-.35-.53-.36-.32-.66-.69-.95-1.06-.17-.22-.33-.45-.49-.68-.3-.41-.62-.79-.94-1.19-.24-.29-.5-.57-.75-.85-.3-.33-.6-.67-.91-1-.3-.32-.65-.5-1.07-.59-.04,0-.07-.01-.11-.01-.07,0-.14.02-.2.06-.07.04-.15.09-.22.09-.18,0-.31.09-.43.2-.08.06-.16.12-.24.18-.3.24-.62.47-.9.74-.56.53-1.06,1.13-1.5,1.77-.29.42-.58.85-.87,1.27-.05.07-.11.14-.17.21-.13.17-.27.34-.39.51-.14.19-.27.38-.4.58-.23.34-.45.67-.67,1.01-.09.14-.16.3-.26.44-.18.27-.38.52-.63.73-.31.27-.57.6-.85.9-.07.07-.12.16-.18.24-.08.11-.16.22-.24.32-.13.16-.25.33-.33.52,0,.01-.02.03-.02.04-.03.05-.06.1-.09.15-.05.08-.1.17-.15.25-.03.05-.07.1-.11.15-.25.3-.48.61-.65.96-.09.18-.22.33-.4.43-.25.14-.41.37-.62.56-.03.02-.05.06-.05.09-.05.21-.22.32-.38.43-1.19-.62-2.29-1.37-3.3-2.24.02-.05.04-.09.05-.14.15-.27.29-.56.46-.82.19-.29.4-.55.61-.83.06-.09.14-.17.22-.24.1-.09.18-.19.23-.32.09-.23.23-.43.44-.56.14-.08.26-.18.4-.27.05-.03.09-.06.14-.09.08-.03.12-.1.15-.18.03-.12.08-.24.12-.36.1-.29.2-.58.3-.86.04-.1.04-.21,0-.32-.02-.05-.04-.1-.06-.15-.04-.09-.03-.17,0-.26.09-.22.18-.45.27-.68.03-.07.07-.12.1-.19,0-.02.01-.03.02-.05h0c.03-.05.06-.11.08-.17.06-.19.1-.38.16-.57.19-.58.41-1.15.57-1.74.02-.06.05-.12.07-.18,0-.02.01-.04.02-.06.03-.09.07-.18.1-.27.18-.52.36-1.04.52-1.56.07-.23.15-.45.24-.68.1-.27.19-.56.2-.86,0-.09.03-.18.11-.24.1-.07.13-.19.17-.3.07-.22.13-.43.2-.64.07-.23.17-.45.18-.7,0-.09.04-.18.08-.26.06-.12.08-.23.03-.36s-.03-.25.07-.35.13-.22.09-.35c-.06-.17-.07-.35-.09-.53-.04-.36.03-.68.3-.94.04-.04.08-.08.09-.13.02-.17.06-.34.01-.51-.04-.14-.06-.28-.12-.42-.05-.13-.05-.26-.04-.4.05-.57.12-1.15.2-1.72.02-.15.05-.28.15-.4.07-.09.14-.19.14-.32,0-.14.06-.26.13-.38.08-.15.16-.3.18-.49-.06-.03-.12-.06-.17-.08-.06-.02-.12-.04-.18-.07,0-.08-.01-.15-.02-.23-.02-.18-.06-.36-.11-.54-.12-.46-.28-.92-.49-1.36-.05-.11-.11-.22-.17-.32-.07-.33-.17-.65-.28-.97-.36-1.1-.97-2.09-1.35-3.18-.11-.38-.19-.77-.22-1.16v-.6c.02-.7.1-1.4.16-2.1.07-.14.11-.29.13-.45v-.16c.05-.06.1-.12.14-.19.09-.14.2-.25.32-.36.09-.08.18-.17.25-.28.11-.16.19-.34.29-.52-.05-.06-.07-.08-.09-.08h-.02s-.06.01-.09.01c-.13,0-.23-.07-.34-.14-.07-.04-.12-.1-.19-.15-.05-.04-.1-.07-.16-.09-.18-.06-.34-.16-.48-.29-.04-.04-.09-.07-.13-.09-.2-.1-.35-.25-.5-.4-.09-.1-.19-.19-.29-.28-.05-.05-.11-.09-.16-.15-.39-.43-.74-.89-.97-1.42-.02-.04-.03-.09-.06-.12-.13-.1-.16-.26-.2-.4-.09-.32-.17-.64-.12-.98.03-.23.05-.47.07-.7,0-.13.03-.25.06-.37.03-.13.13-.24.1-.39-.03-.16.09-.28.14-.42.1-.04.09-.12.09-.2,0-.11-.01-.23.06-.31.12-.14.21-.28.29-.45.01-.03.05-.05.07-.08.05.01.09.02.14.03.06-.05.12-.1.19-.14.12-.06.22-.15.32-.24.16-.14.33-.27.55-.33.28-.08.54-.19.81-.3.18-.07.35-.15.52-.22.07-.03.14-.05.21-.05h0c.06,0,.13.03.2.05.14-.12.3-.16.48-.16h.05c.2,0,.39.02.59.05.1.02.21.02.31.02h.17c.37.02.74.02,1.03.33.03.09.06.18.08.28.01.06.02.13,0,.18-.06.15,0,.26.09.37.22.29.5.49.8.67.06.04.12.08.18.12.06.05.09.1.1.18,0,.13.02.27.02.4,0,.16.06.28.15.4.03.04.08.08.1.12.07.14.19.24.32.32.15.1.3.2.44.31.19.15.22.28.1.49-.06.11-.09.22-.07.34.02.11.04.23.07.34.09.27.19.55.29.82.05.13.11.25.17.37.06.13.13.25.19.38.16-.04.17-.03.27-.13.12-.12.25-.18.39-.18.08,0,.16.02.25.05h.08c.09-.08.19-.18.3-.28.07-.07.15-.13.24-.13.02,0,.05,0,.07.01.05.02.09.02.13.02.1,0,.18-.05.26-.13.06-.05.13-.1.19-.15.02-.11.04-.21.06-.32.58-.16,1.15-.32,1.73-.5,0,.03,0,.05,0,.08.06.02.11.03.17.03.09,0,.17-.02.25-.06.1-.05.22-.09.34-.09.14,0,.26-.02.38-.08.03.17.04.31.06.45.19-.09.38-.18.58-.28.29-.14.58-.25.85-.43.11-.08.17-.17.2-.31.07-.33.14-.67.22-1,.07-.31.18-.61.2-.93,0-.09,0-.18.03-.26.06-.2.07-.41.08-.61.02-.29,0-.58-.06-.87-.05-.27-.08-.55-.04-.83,0-.07,0-.13,0-.2-.02,0-.03,0-.05.01.02-.36-.03-.72-.19-1.06-.08-.16-.16-.33-.26-.48-.21-.35-.43-.7-.65-1.06-.06-.09-.1-.2-.14-.3-.06-.15-.1-.31-.18-.44-.1-.15-.18-.31-.26-.48-.05-.11-.09-.22-.17-.31-.11-.15-.12-.3-.1-.47v-.68h0v-.05c-.02-.1,0-.19,0-.28.03-.13.04-.25,0-.38,0-.07-.02-.14.04-.2.04,0,.08-.02.12-.02.15,0,.25.11.33.23.03,0,.06,0,.09,0,.12,0,.19.08.25.18.09.15.12.31.13.48,0,.06,0,.11,0,.16.06.2.1.4.14.6,0,.04.03.09.06.13.11.14.18.3.23.47.02.08.06.14.12.19.18.14.32.3.4.52,0,.03.04.08.07.09.13.06.26.11.4.15h.06c.07,0,.14-.04.19-.1.14-.16.19-.35.17-.55-.03-.22.03-.43.11-.63.05-.13.15-.22.28-.27.04-.01.08-.02.12-.02.12,0,.23.07.26.2.05.22.06.44,0,.66-.02.12-.07.23-.1.34-.02.08-.05.17-.05.25,0,.2.03.4,0,.59v.05c.09.25.08.52.1.78v.24c-.03.17-.03.35,0,.52,0,.14,0,.28-.02.41.06.23.13.45.19.67.09.33.19.66.28.98.16.59.27,1.19.3,1.8,0,.26.02.52.03.78,0,.28,0,.55.07.83.02.1.05.2.05.3,0,.22.06.42.11.63.03.11.04.24.03.35-.04.27-.14.52-.28.75-.02.04-.05.08-.09.11-.25.19-.48.41-.77.56-.16.08-.33.16-.49.25-.15.08-.3.18-.45.26-.3.17-.63.31-.94.46-.22.11-.45.2-.68.3v.09c0,.1,0,.2-.03.29-.07.06-.13.12-.18.18-.48.13-1,.33-1.39.64-.39.32-.45.75-.44,1.23.02,1.05.85,3.6.88,3.65,0,.06.04.12.05.18.07.02.14.04.21.05h.09c.12,0,.21-.04.31-.11.31-.23.63-.44.95-.67.29-.21.62-.37.88-.62.07-.07.14-.14.22-.19.21-.12.37-.28.54-.45.24-.23.45-.49.63-.77.17-.27.36-.53.6-.72.23-.19.39-.42.55-.66.2-.28.34-.6.57-.85.05-.06.08-.14.11-.21s.04-.14.06-.21c.08-.37.15-.74.24-1.11.04-.19.09-.39.1-.59,0-.17.06-.31.15-.45.07-.1.12-.22.17-.34.07-.17.13-.34.17-.51.06-.25.18-.43.44-.49.11-.03.22-.09.26-.21.06-.16.18-.24.33-.3.08-.04.15-.09.23-.14.06-.04.12-.09.18-.12.19-.1.38-.21.57-.3.13-.06.25-.15.35-.24.03-.03.07-.06.1-.09h0s.1-.06.15-.06c.09,0,.18.07.21.18.06.18,0,.42-.19.52-.33.19-.56.47-.81.75-.07.08-.13.17-.12.29,0,.14-.04.26-.12.38-.04.06-.09.13-.07.28.08-.12.13-.2.18-.28.12-.17.28-.31.43-.45.06-.06.13-.11.16-.18.04-.12.13-.19.21-.28.11-.12.23-.23.34-.34.03-.03.07-.06.11-.08.03-.01.05-.02.08-.02.05,0,.09.02.12.06.03.03.04.1.03.15-.02.09-.05.17-.09.25-.14.29-.35.52-.54.77-.14.2-.28.39-.4.61-.09.17-.19.33-.18.53,0,.03,0,.07-.02.11-.04.19-.11.38-.18.56-.11.28-.19.58-.28.87-.12.4-.35.75-.59,1.09-.05.07-.12.14-.19.19-.27.21-.46.47-.62.77-.24.47-.48.95-.72,1.42-.18.35-.34.69-.52,1.04-.32.61-.69,1.2-1.14,1.73-.19.23-.38.45-.58.67-.21.23-.42.47-.58.74-.06.1-.12.21-.19.29-.16.18-.28.4-.4.61-.07.12-.15.23-.25.32-.24.2-.52.32-.81.41-.04.01-.09.02-.13.02h-.02c-.08,0-.16-.01-.24-.02.04.2.07.41.11.61.03.17.07.34.09.5.04.35.08.7.11,1.04.02.26.02.52.03.78,0,.13-.02.28.03.4.11.26.13.54.25.79.16.35.27.72.4,1.09.08.23.15.46.26.68.08.17.12.33.16.51,0,.05.03.1.05.15.08.22.13.44.08.68-.05.27-.02.54.12.79.11.19.15.42.31.59.05.06.07.15.1.22s.05.15.1.22c.07.1.16.19.24.29.05.07.13.14.14.22.03.12.08.22.14.32.06.09.12.18.13.29,0,.1.07.19.14.26.26.26.44.57.66.86.09.12.18.24.22.4,0,.05.05.1.08.14.31.4.57.83.83,1.26.05.08.1.17.14.26.13.3.26.59.39.89.1.22.17.46.28.67.22.4.39.81.57,1.22.04.09.09.18.12.27.07.23.17.46.3.66.08.13.19.25.25.38.08.18.16.36.25.54.06.11.09.23.14.35.18.41.37.82.55,1.23.16.37.33.74.56,1.08.05.07.08.14.11.22.11.25.13.52.11.79-.02.23-.06.46-.08.7-.03.28-.05.55-.13.82-.1.35-.18.72-.32,1.06-.05.12-.08.24-.12.36-.09.27-.18.55-.28.82-.14.37-.32.72-.45,1.1-.03.1-.06.2-.09.29-.07.26-.14.51-.2.77-.06.24-.13.47-.21.7-.02.06-.06.11-.07.17-.05.26-.17.49-.26.74-.03.07-.06.15-.11.21-.07.09-.15.18-.23.27h-4.96l-.07.15ZM35.2,113.79c.03-.05.06-.09.08-.15.02-.06.05-.13.07-.19.07-.17.15-.37.2-.59.03-.06.05-.12.07-.18l.05-.16c.06-.2.13-.4.17-.61l.03-.12c.07-.3.14-.58.23-.85,0-.01,0-.02,0-.03h37.68c.16.5.32.98.47,1.39l.11.3c.14.37.3.77.49,1.18h-39.67,0ZM112.46,96.39c0,9.6-7.81,17.4-17.4,17.4h-8.55c.01-.1.02-.2.03-.29.02-.26.04-.5.11-.65.06-.12.3-.28.54-.43.34-.22.77-.5,1.07-.95.12-.18.2-.36.29-.55h3.72c9.64,0,17.45-7.81,17.45-17.45v-16.4c.83,1.49,1.76,3.3,2.74,5.29v14.02h0ZM112.46,80.16c-1-1.97-1.93-3.7-2.74-5.04-.33-.55-.65-1.04-.94-1.45-1.8.49-3.77.8-5.58,1.28-.27,3.55-1.9,6.65-3.23,9.74-2.63,6.11-5.11,12.12-8.09,17.79-1.1,2.1-2.36,4.18-3.46,6.17-.41.74-.56,1.63-.98,2.27h0c-.4.61-1.34.8-1.67,1.5-.21.43-.18.94-.24,1.36-.02.14-.05.27-.1.39-.09.21-.22.4-.37.59-.9,1.13-2.87,1.9-4.73,1.9-.33,0-.66-.02-.97-.07-1.24-.2-2.12-.91-2.78-1.82-.22-.31-.43-.64-.61-.98-.25-.49-.47-1.01-.65-1.52-.14-.38-.32-.84-.48-1.35-.37-1.13-.68-2.48-.34-3.65.13-.46.76-1,.76-1.55,0-.3-.35-.72-.67-1.08-.89-.99-1.72-2.05-2.47-2.89-1.22-1.37-2.18-2.88-3.59-3.63-.3-.16-.62-.37-1.1-.37h-.04c.67-.24,1.13-.68,1.12-1.41-.01-.72-.67-1.18-1.37-1.18h-.03c-.19,0-.39.18-.52.18-.05,0-.08-.03-.1-.09-.15-.59.35-.98.8-1.12.03-.01.06-.02.1-.02.14,0,.29.09.38.09.05,0,.08-.03.08-.1-.1-1.11-.78-1.7-2.04-1.77.78-.37,1.45-1.57,1.01-2.7-.62.08-1.42.26-1.96.26h-.07c.25-.97.89-1.51,1.98-1.54-.09-.36-.16-.75-.31-1.06-.36.08-.84.25-1.24.25-.09,0-.17,0-.24-.03.22-1.07.94-1.59,1.76-1.98-.26-.53-1-.8-1.66-.8-.11,0-.21,0-.31.02.27-.48.65-.83,1.22-.97.02-.04.07-.06.13-.06.09,0,.2.03.29.03s.15-.03.14-.12c.04-.34.02-.64-.07-.86-.24-.19-1.09-.03-1.26-.44.59-.27,1.15-.57,1.76-.82-.18-.54-.55-.9-.72-1.45-.21.07-.43.1-.65.1-.3,0-.6-.06-.88-.19.26-.47.8-.73,1.33-.84.16-.03.45.04.56-.15.07-1.26-.67-1.8-1.59-2.17.54-.3,1.16-.52,1.64-.89-.63-.59-1.36-1.1-2.18-1.53.43-.23,1.01-.29,1.38-.6-.4-1.12-1.32-1.75-2.2-2.33-.3-.2-.63-.39-.88-.66.13-.21.4-.26.71-.26.24,0,.52.03.77.04-.26-.74-.64-1.36-1.05-1.96-1.89,2.2-3.8,4.4-5.69,6.6,1.41,2.21,3.49,4.12,5.18,5.86-2.15-1.46-4.23-2.99-6.17-4.63-1.53,1.79-2.94,3.55-4.46,5.45-.41.51-1.29,1.37-1.34,2.01-.04.51.49,1.32.81,2,.95,2.06,1.81,4.02,2.67,5.9,1.25,2.73,2.24,5.44,3.74,7.68.78,1.17,1.73,2.13,2.71,3.09.99.97,1.94,1.97,2.9,2.92.99.98,2.01,1.91,3.35,2.51.7.32,1.43.54,2.22.74.79.19,1.64.29,2.48.57h-.52c-3.82,0-6.9-.97-9.33-2.33-2.56-1.43-4.59-3.38-6.17-5.73-1.59-2.36-2.54-5.23-3.6-8.03-.93-2.47-1.95-4.87-3.68-6.57-.22-.21-.47-.58-.82-.6-.93,2.3-1.51,5.66-1.15,8.63-1.11-1.66-1.62-3.76-1.56-6.15.07-2.41.81-4.68,1.65-6.52,1.71-3.76,4.16-6.9,6.53-9.68-2.75-4.17-3.19-10.41-4.57-15.8-.32,2.57-.31,5.29-.11,7.58-1.15-2.3-1.89-5.2-1.81-8.3.09-3.29.94-6.3,2.2-8.69,1.28-2.43,2.91-4.07,4.67-5.92.75-.79,1.68-1.81,2.42-2.87.7-1,1.34-2.57,2.25-3.06.44-.24.94-.34,1.46-.34,1.2,0,2.5.54,3.33,1.15,3.29,2.44,3.82,7.44,5.32,11.07.06.11.06.14.03.14s-.1-.05-.14-.05c-.03,0-.03.03.03.14,1.23,3.04,2.92,5.52,4.05,8.67.61,1.7.87,3.23.74,5.37-.11,1.93.26,3.84.67,5.61.4,1.72.85,3.27,1.51,4.8,1.93,4.44,4.18,8.71,5.04,13.99.49-.68.92-1.43.94-2.64.18.1.33.15.46.15.83,0,.66-1.91,1.64-1.91.09,0,.2.02.32.06-.16-.28-.18-.69-.31-1,1.5-.09,1.9-1.17,2.63-2.24,2.49-3.64,4.5-7.87,7.91-10.27,1.42-1,3.52-1.57,4.26-2.89.56-.99.45-2.51,1.16-3.24-.71-2.49-1.71-4.32-3.41-5.88-.42-.38-1.53-.98-1.76-1.44-.22-.45-.1-1.26-.08-1.84-.7-.59-1.69-.93-2.62-1.31-.14-.53-.32-1.03-.34-1.67-.27.02-.73.39-1.19.42.19.88.16,2.73-.6,3.03-.12.05-.25.06-.39.06-.46,0-.99-.2-1.44-.23h-.34c-2.93,0-4.85,2.21-4.24,5.39-.43-.7-.72-1.52-1.1-2.26-.65.22-1.22.54-2.05.56-.24-.23-.14-.76-.24-1.12-.23.19-.51.27-.79.27-.8,0-1.6-.68-1.16-1.48-.27.08-.73.19-1.02.19-.06,0-.11,0-.15,0,.3-5.15.83-10.05,1.67-14.6-14.81-10.38-30.03-20.41-44.18-31.35-1.12-.86-2.22-1.73-3.33-2.6h2.85c1.08.87,2.15,1.74,3.24,2.6,13.32,10.58,27.2,20.65,41.67,30.2.15-.99.56-1.98,1.01-2.82.12-.22.48-.78.47-.83,0-.07-.66-.57-1.05-.92-9.52-8.47-19.1-17-28.36-25.63-.93-.87-1.88-1.73-2.8-2.6h2.03c.89.87,1.78,1.74,2.67,2.6,9.09,8.84,18.49,17.37,28.23,25.73.42-.49.93-.91,1.54-1.2.64-.31,1.3-.44,1.96-.44,2.36,0,4.81,1.59,6.75,2.33.78.3,1.65.52,2.15.91,1.04.81,1.05,2.26,1.26,3.86.15,1.13.28,2.28.31,3.32.15-.07.3-.09.45-.09.2,0,.4.04.59.09.88.22,1.81.61,2.64.94,4.34,1.73,6.32,5.38,8.57,8.92,1.09,1.72,2.19,3.37,3.28,5.01.92,1.39,1.84,2.79,2.74,4.21v17.96l-.05.03ZM112.46,60.36c-.77-1.19-1.54-2.37-2.31-3.52-.14-.21-.29-.43-.43-.65v-30.16c0-9.64-7.81-17.45-17.45-17.45h-38.86c-.9-.87-1.78-1.74-2.67-2.6h44.32c9.6,0,17.4,7.81,17.4,17.4v36.98Z" fill="#fff"/>
</svg>